# xmcd
#
# Track frame offsets:
#	150
#	12555
#	36265
#	49157
#	65785
#	81625
#	95730
#	110350
#	125260
#	143440
#
# Disc length: 2202 seconds
#
# Revision: 1
# Processed by: cddbd v1.5.2PL0 Copyright (c) Steve Scherf et al.
# Submitted via: EZCDAudioConverter 6.0.8.1
#
DISCID=8e08980a
DTITLE=David Allan Coe - Super Hits
DYEAR=1993
DGENRE=Country
TTITLE0=Cheap Thrills
TTITLE1=You Never Even Called Me By My Name
TTITLE2=Would You Lay With Me (In A Field Of Stone)
TTITLE3=Mona Lisa Lost Her Smile
TTITLE4=If This Is Just A Game
TTITLE5=The Ride
TTITLE6=Willie, Waylon, And Me
TTITLE7=Jack Daniels If You Please
TTITLE8=Family Reunion
TTITLE9=If That Ain't Country
EXTD=
EXTT0=
EXTT1=
EXTT2=
EXTT3=
EXTT4=
EXTT5=
EXTT6=
EXTT7=
EXTT8=
EXTT9=
PLAYORDER=
